<svg width="57" height="18" viewBox="0 0 57 18" fill="none" xmlns="http://www.w3.org/2000/svg">
<rect width="57" height="18" rx="9" fill="#A3E74D"/>
<path d="M11.6562 5.18506C12.3008 5.18506 12.8934 5.43571 13.4341 5.93701C13.896 6.39176 14.127 6.77848 14.127 7.09717C14.127 7.38005 13.9963 7.61458 13.7349 7.80078C13.5881 7.8903 13.4359 7.93506 13.2783 7.93506C12.9489 7.93506 12.6821 7.75423 12.478 7.39258C12.2238 7.04525 11.9445 6.87158 11.6401 6.87158C11.4181 6.87158 11.1675 6.95394 10.8882 7.11865C10.745 7.23324 10.6357 7.35319 10.5605 7.47852C10.3099 7.91536 10.1846 8.44173 10.1846 9.05762C10.1846 9.77376 10.3529 10.3646 10.6895 10.8301C10.8112 11.0127 11.035 11.147 11.3608 11.2329C11.5685 11.2866 11.7476 11.3135 11.8979 11.3135C12.1951 11.3135 12.3975 11.2132 12.5049 11.0127C12.6875 10.8014 12.9095 10.6958 13.1709 10.6958C13.4538 10.6958 13.6883 10.8265 13.8745 11.0879C13.964 11.2347 14.0088 11.3869 14.0088 11.5444C14.0088 11.8918 13.7635 12.2445 13.2729 12.6025C12.8647 12.8675 12.4082 13 11.9033 13C11.3268 13 10.745 12.855 10.1577 12.5649C9.55973 12.2248 9.10319 11.6375 8.78809 10.8032C8.59473 10.2339 8.49805 9.66813 8.49805 9.10596V9.00391C8.49805 7.97982 8.76839 7.09001 9.30908 6.33447C9.60986 5.98356 9.84261 5.76872 10.0073 5.68994C10.5516 5.35335 11.1012 5.18506 11.6562 5.18506ZM17.3335 5.21191H17.3389C17.8509 5.21191 18.252 5.60758 18.542 6.39893C18.9538 7.44808 19.4354 9.17578 19.9868 11.582C20.062 11.8721 20.0996 12.0654 20.0996 12.1621C20.0996 12.4736 19.9403 12.7243 19.6216 12.9141C19.4891 12.9714 19.3656 13 19.251 13C18.9574 13 18.7139 12.855 18.5205 12.5649C18.4775 12.5112 18.3952 12.1979 18.2734 11.625C18.2054 11.3385 18.1678 11.1953 18.1606 11.1953H18.1499C18.0246 11.1953 17.4123 11.224 16.313 11.2812C16.2987 11.2956 16.202 11.6393 16.0229 12.3125C15.9549 12.513 15.8224 12.6706 15.6255 12.7852C15.4894 12.8532 15.3551 12.8872 15.2227 12.8872C14.9398 12.8872 14.7052 12.7565 14.519 12.4951C14.4295 12.3483 14.3848 12.1961 14.3848 12.0386C14.3848 11.8381 14.741 10.5544 15.4536 8.1875C15.8618 6.90202 16.2145 6.05518 16.5117 5.64697C16.7516 5.35693 17.0256 5.21191 17.3335 5.21191ZM16.7964 9.54639C16.8 9.55713 16.8018 9.56429 16.8018 9.56787C17.3138 9.53564 17.6253 9.51953 17.7363 9.51953C17.7399 9.51237 17.7417 9.507 17.7417 9.50342C17.5806 8.89827 17.4373 8.39339 17.312 7.98877H17.3066C17.2923 7.98877 17.1598 8.38623 16.9092 9.18115C16.8483 9.39958 16.8107 9.52132 16.7964 9.54639ZM25.1484 5.19043C25.4242 5.19043 25.6569 5.32113 25.8467 5.58252C25.9111 5.66846 25.9577 5.81348 25.9863 6.01758C25.9076 8.72461 25.8538 10.0781 25.8252 10.0781C25.8252 10.1784 25.7643 10.4559 25.6426 10.9106C25.5566 11.1613 25.4564 11.3958 25.3418 11.6143C25.2487 11.7861 25.0983 11.9902 24.8906 12.2266C24.64 12.4736 24.4502 12.6258 24.3213 12.6831C23.9417 12.8944 23.5962 13 23.2847 13H23.0859C22.7207 13 22.325 12.8675 21.8989 12.6025C20.8462 11.8398 20.3198 10.5293 20.3198 8.6709V8.33789C20.3198 7.75423 20.3037 7.05957 20.2715 6.25391C20.2715 5.97103 20.4022 5.7347 20.6636 5.54492C20.8104 5.4554 20.9626 5.41064 21.1201 5.41064C21.403 5.41064 21.6375 5.54492 21.8237 5.81348C21.9204 5.92448 21.9688 6.2002 21.9688 6.64062C21.9938 7.12402 22.0063 7.68083 22.0063 8.31104V8.60107C22.0063 9.86149 22.2606 10.7119 22.769 11.1523C22.9051 11.2598 23.0358 11.3135 23.1611 11.3135H23.2202C23.4279 11.3135 23.6356 11.1541 23.8433 10.8354C23.9364 10.6779 24.0133 10.4953 24.0742 10.2876C24.153 9.97607 24.1924 9.5804 24.1924 9.10059C24.2389 8.04785 24.2747 7.00407 24.2998 5.96924C24.3141 5.83675 24.3643 5.69889 24.4502 5.55566C24.64 5.31217 24.8727 5.19043 25.1484 5.19043ZM27.2163 5.19043C30.6431 5.24414 32.3564 5.27816 32.3564 5.29248C32.5964 5.35693 32.7718 5.46615 32.8828 5.62012C32.9902 5.78841 33.0439 5.95671 33.0439 6.125C33.0439 6.42936 32.8971 6.67285 32.6035 6.85547C32.4639 6.92708 32.3385 6.96289 32.2275 6.96289C31.2357 6.94499 30.6771 6.93604 30.5518 6.93604V12.1406C30.5518 12.5023 30.3745 12.769 30.02 12.9409C29.9054 12.9803 29.7998 13 29.7031 13C29.388 13 29.1374 12.8424 28.9512 12.5273C28.8939 12.402 28.8652 12.2731 28.8652 12.1406V6.90381C27.6406 6.88949 27.0283 6.87158 27.0283 6.8501C26.7956 6.7749 26.6291 6.65316 26.5288 6.48486C26.4393 6.33805 26.3945 6.18587 26.3945 6.02832C26.3945 5.72396 26.5431 5.47868 26.8403 5.29248C26.9585 5.23161 27.0838 5.19759 27.2163 5.19043ZM34.29 5.27637C34.598 5.27637 34.8486 5.43571 35.042 5.75439C35.0993 5.89046 35.1279 6.02295 35.1279 6.15186V12.1353C35.1279 12.4826 34.9614 12.744 34.6284 12.9194C34.5138 12.9731 34.3957 13 34.2739 13C33.9803 13 33.7404 12.8586 33.5542 12.5757C33.479 12.4432 33.4414 12.2982 33.4414 12.1406V6.13574C33.4414 5.77767 33.6187 5.5127 33.9731 5.34082C34.0877 5.29785 34.1934 5.27637 34.29 5.27637ZM38.7856 5.19043H38.8823C39.3908 5.19043 39.8778 5.39274 40.3433 5.79736C40.6226 6.07666 40.8034 6.29688 40.8857 6.45801C41.3799 7.28874 41.627 8.24479 41.627 9.32617C41.627 10.5042 41.3298 11.4531 40.7354 12.1729C40.234 12.7243 39.6379 13 38.9468 13H38.8984C38.2826 13 37.7096 12.7923 37.1797 12.377C36.8682 12.0798 36.7035 11.9007 36.6855 11.8398C36.4958 11.5785 36.3525 11.3242 36.2559 11.0771C36.0267 10.4863 35.9121 9.86686 35.9121 9.21875C35.9121 8.06576 36.2129 7.07389 36.8145 6.24316C37.015 5.99967 37.2048 5.81169 37.3838 5.6792C37.835 5.35335 38.3022 5.19043 38.7856 5.19043ZM37.5986 9.21875C37.5986 9.89909 37.7544 10.4541 38.0659 10.8838C38.2951 11.1702 38.5851 11.3135 38.936 11.3135C39.4194 11.3135 39.7381 10.8641 39.8921 9.96533C39.9243 9.73617 39.9404 9.52311 39.9404 9.32617C39.9404 8.55632 39.7757 7.88672 39.4463 7.31738C39.2529 7.02376 39.0435 6.87695 38.8179 6.87695C38.381 6.87695 38.0265 7.27979 37.7544 8.08545C37.6506 8.45785 37.5986 8.83561 37.5986 9.21875ZM47.2021 5.17969C47.485 5.17969 47.7196 5.31396 47.9058 5.58252C47.9989 5.6792 48.0454 5.9585 48.0454 6.42041C48.0776 7.56982 48.0938 8.6154 48.0938 9.55713V9.68066C48.0938 11.2741 48.0257 12.1729 47.8896 12.377C47.8646 12.4701 47.7733 12.59 47.6157 12.7368C47.4474 12.8657 47.2666 12.9302 47.0732 12.9302C46.6973 12.9302 46.3553 12.6742 46.0474 12.1621C45.5783 11.4281 45.0501 10.5275 44.4629 9.46045C44.4557 9.46045 44.3358 9.25456 44.103 8.84277H44.0923C44.0923 9.15072 44.1388 10.2607 44.2319 12.1729C44.2319 12.445 44.103 12.6759 43.8452 12.8657C43.6948 12.9552 43.5426 13 43.3887 13C43.0807 13 42.8337 12.8514 42.6475 12.5542C42.5687 12.4217 42.5293 12.1585 42.5293 11.7646C42.429 9.95638 42.3789 8.49007 42.3789 7.36572C42.3789 6.40609 42.4487 5.84928 42.5884 5.69531C42.6493 5.56641 42.7567 5.45361 42.9106 5.35693C43.0503 5.27816 43.2007 5.23877 43.3618 5.23877C43.7342 5.23877 44.0654 5.48405 44.3555 5.97461C44.5596 6.27539 44.9481 6.92529 45.521 7.92432C45.9793 8.7443 46.2729 9.25814 46.4019 9.46582H46.4072V9.46045C46.4072 8.55452 46.3875 7.39795 46.3481 5.99072C46.3481 5.82243 46.4198 5.64697 46.563 5.46436C46.7456 5.27458 46.9587 5.17969 47.2021 5.17969Z" fill="white"/>
</svg>
