<svg width="41" height="18" viewBox="0 0 41 18" fill="none" xmlns="http://www.w3.org/2000/svg">
<rect width="41" height="18" rx="9" fill="#19C8FF"/>
<path d="M11.6377 5.19043H11.7451C12.1497 5.19043 12.5418 5.26204 12.9214 5.40527C13.2365 5.59863 13.394 5.85465 13.394 6.17334C13.394 6.4777 13.2383 6.72477 12.9268 6.91455C12.7907 6.97542 12.6618 7.00586 12.54 7.00586C12.4684 7.00586 12.3055 6.97184 12.0513 6.90381C11.9224 6.8859 11.7988 6.87695 11.6807 6.87695C11.2188 6.87695 10.8052 7.02734 10.4399 7.32812C10.2215 7.58236 10.0729 7.95117 9.99414 8.43457C9.95475 8.68522 9.93506 8.93587 9.93506 9.18652V9.21338C9.93506 10.0011 10.0908 10.6134 10.4023 11.0503C10.5169 11.1756 10.6136 11.2383 10.6924 11.2383C10.8571 11.2884 11.0343 11.3135 11.2241 11.3135H11.2456C11.7899 11.3135 12.1229 11.0199 12.2446 10.4326C12.259 10.3538 12.2697 10.2357 12.2769 10.0781C12.2733 10.0531 12.2715 10.0173 12.2715 9.9707C12.2536 9.96354 12.2357 9.95996 12.2178 9.95996H12.1587C12.0262 9.95996 11.8311 9.99219 11.5732 10.0566C11.5374 10.0638 11.5016 10.0674 11.4658 10.0674C11.1829 10.0674 10.9484 9.93669 10.7622 9.67529C10.6727 9.52848 10.6279 9.3763 10.6279 9.21875C10.6279 8.93229 10.7658 8.69238 11.0415 8.49902C11.1167 8.44889 11.2778 8.39518 11.5249 8.33789C11.7505 8.29492 11.9313 8.27344 12.0674 8.27344H12.2393C12.6654 8.27344 13.0521 8.41488 13.3994 8.69775C13.7754 9.04508 13.9634 9.50342 13.9634 10.0728C13.9634 10.9142 13.7038 11.6214 13.1846 12.1943C12.9053 12.4665 12.6815 12.6348 12.5132 12.6992C12.1157 12.8997 11.7147 13 11.3101 13H11.1436C10.7604 13 10.3486 12.9176 9.9082 12.7529C9.33171 12.488 8.89128 11.9705 8.58691 11.2007C8.36133 10.5776 8.24854 9.94385 8.24854 9.29932V9.11133C8.24854 8.31641 8.40967 7.56982 8.73193 6.87158C9.02913 6.25212 9.53939 5.78841 10.2627 5.48047C10.7318 5.28711 11.1901 5.19043 11.6377 5.19043ZM17.2451 5.19043H17.3418C17.8503 5.19043 18.3372 5.39274 18.8027 5.79736C19.082 6.07666 19.2629 6.29688 19.3452 6.45801C19.8394 7.28874 20.0864 8.24479 20.0864 9.32617C20.0864 10.5042 19.7892 11.4531 19.1948 12.1729C18.6935 12.7243 18.0973 13 17.4062 13H17.3579C16.742 13 16.1691 12.7923 15.6392 12.377C15.3276 12.0798 15.1629 11.9007 15.145 11.8398C14.9552 11.5785 14.812 11.3242 14.7153 11.0771C14.4862 10.4863 14.3716 9.86686 14.3716 9.21875C14.3716 8.06576 14.6724 7.07389 15.2739 6.24316C15.4744 5.99967 15.6642 5.81169 15.8433 5.6792C16.2944 5.35335 16.7617 5.19043 17.2451 5.19043ZM16.0581 9.21875C16.0581 9.89909 16.2139 10.4541 16.5254 10.8838C16.7546 11.1702 17.0446 11.3135 17.3955 11.3135C17.8789 11.3135 18.1976 10.8641 18.3516 9.96533C18.3838 9.73617 18.3999 9.52311 18.3999 9.32617C18.3999 8.55632 18.2352 7.88672 17.9058 7.31738C17.7124 7.02376 17.5029 6.87695 17.2773 6.87695C16.8405 6.87695 16.486 7.27979 16.2139 8.08545C16.11 8.45785 16.0581 8.83561 16.0581 9.21875ZM23.626 5.19043H23.7227C24.2311 5.19043 24.7181 5.39274 25.1836 5.79736C25.4629 6.07666 25.6437 6.29688 25.7261 6.45801C26.2202 7.28874 26.4673 8.24479 26.4673 9.32617C26.4673 10.5042 26.1701 11.4531 25.5757 12.1729C25.0744 12.7243 24.4782 13 23.7871 13H23.7388C23.1229 13 22.55 12.7923 22.02 12.377C21.7085 12.0798 21.5438 11.9007 21.5259 11.8398C21.3361 11.5785 21.1929 11.3242 21.0962 11.0771C20.867 10.4863 20.7524 9.86686 20.7524 9.21875C20.7524 8.06576 21.0532 7.07389 21.6548 6.24316C21.8553 5.99967 22.0451 5.81169 22.2241 5.6792C22.6753 5.35335 23.1426 5.19043 23.626 5.19043ZM22.439 9.21875C22.439 9.89909 22.5947 10.4541 22.9062 10.8838C23.1354 11.1702 23.4255 11.3135 23.7764 11.3135C24.2598 11.3135 24.5785 10.8641 24.7324 9.96533C24.7646 9.73617 24.7808 9.52311 24.7808 9.32617C24.7808 8.55632 24.616 7.88672 24.2866 7.31738C24.0933 7.02376 23.8838 6.87695 23.6582 6.87695C23.2214 6.87695 22.8669 7.27979 22.5947 8.08545C22.4909 8.45785 22.439 8.83561 22.439 9.21875ZM28.5889 5.23877C29.6416 5.23877 30.5171 5.54492 31.2153 6.15723C31.9709 6.85905 32.3486 7.83659 32.3486 9.08984C32.3486 10.5866 31.7471 11.6912 30.5439 12.4038C29.8027 12.8013 28.9899 13 28.1055 13H28.0625C27.6973 13 27.4269 12.8156 27.2515 12.4468C27.2157 12.3215 27.1978 12.2355 27.1978 12.189C27.2515 8.12484 27.2837 6.06055 27.2944 5.99609C27.3338 5.79199 27.4108 5.63623 27.5254 5.52881C27.6829 5.33545 28.0213 5.23877 28.5405 5.23877H28.5889ZM28.9595 6.95215V6.95752L28.895 11.2275C29.0096 11.2275 29.2567 11.1452 29.6362 10.9805C30.3201 10.6367 30.6621 10.0065 30.6621 9.08984C30.6621 8.12663 30.3595 7.48926 29.7544 7.17773C29.4285 7.02734 29.1636 6.95215 28.9595 6.95215Z" fill="white"/>
</svg>
