<svg width="50" height="18" viewBox="0 0 50 18" fill="none" xmlns="http://www.w3.org/2000/svg">
<rect width="50" height="18" rx="9" fill="#89BFFF"/>
<path d="M7.34521 5.19043C7.66032 5.19043 7.91097 5.34798 8.09717 5.66309C8.15446 5.78841 8.18311 5.91732 8.18311 6.0498V11.3027L11.1426 11.2329C11.2965 11.2329 11.4648 11.3009 11.6475 11.437C11.848 11.6232 11.9482 11.8398 11.9482 12.0869C11.9482 12.3734 11.8122 12.6097 11.54 12.7959C11.4326 12.8818 11.1981 12.9248 10.8364 12.9248C8.76318 12.9749 7.59408 13 7.3291 13C7.03548 13 6.79557 12.8586 6.60938 12.5757C6.53418 12.4432 6.49658 12.2982 6.49658 12.1406V6.0498C6.49658 5.68815 6.67383 5.42139 7.02832 5.24951C7.1429 5.21012 7.24854 5.19043 7.34521 5.19043ZM14.7144 7.03809H14.9131C15.4788 7.03809 16.0052 7.24756 16.4922 7.6665C16.7607 7.93864 16.9577 8.20182 17.083 8.45605C17.3301 8.95736 17.4536 9.49447 17.4536 10.0674C17.4536 10.8766 17.2173 11.5713 16.7446 12.1514C16.4725 12.4378 16.2845 12.599 16.1807 12.6348C15.7975 12.8783 15.3893 13 14.9561 13H14.8325C14.256 13 13.7064 12.8228 13.1836 12.4683C13.1084 12.436 12.9347 12.2749 12.6626 11.9849C12.2114 11.4263 11.9858 10.771 11.9858 10.019C11.9858 9.21696 12.2508 8.51335 12.7808 7.9082C13.0565 7.63965 13.2552 7.47852 13.377 7.4248C13.8245 7.16699 14.2703 7.03809 14.7144 7.03809ZM13.6724 10.0244C13.6724 10.4398 13.8138 10.7782 14.0967 11.0396C14.3294 11.2222 14.5944 11.3135 14.8916 11.3135C15.2783 11.3135 15.5451 11.0736 15.6919 10.5938C15.7384 10.4183 15.7617 10.2536 15.7617 10.0996V10.0244C15.7617 9.5625 15.6185 9.18652 15.332 8.89648C15.196 8.7819 15.0259 8.72461 14.8218 8.72461C14.3205 8.72461 13.9678 8.97884 13.7637 9.4873C13.7028 9.69499 13.6724 9.87402 13.6724 10.0244ZM20.7676 6.86084C21.3942 6.86084 22.0728 7.02018 22.8032 7.33887C22.8748 7.36393 22.9769 7.45345 23.1094 7.60742C23.1774 7.70052 23.2293 7.82227 23.2651 7.97266C23.3618 8.05143 23.4352 8.17855 23.4854 8.354C23.5212 8.55094 23.5391 8.8016 23.5391 9.10596C23.5391 9.29932 23.5373 9.53027 23.5337 9.79883C23.5623 11.1452 23.5767 11.9723 23.5767 12.2803C23.5767 13.1003 23.3672 13.7878 22.9482 14.3428C22.6976 14.6149 22.5221 14.7743 22.4219 14.8208C22.0208 15.075 21.5822 15.2021 21.106 15.2021H21.0254C20.6637 15.2021 20.3254 15.1395 20.0103 15.0142C19.7059 14.8315 19.5537 14.5809 19.5537 14.2622C19.5537 13.9435 19.7095 13.6929 20.021 13.5103C20.1499 13.453 20.2788 13.4243 20.4077 13.4243C20.4471 13.4243 20.6118 13.453 20.9019 13.5103C20.9771 13.5138 21.0361 13.5156 21.0791 13.5156C21.473 13.5156 21.7147 13.3169 21.8042 12.9194C21.8293 12.8478 21.8418 12.7852 21.8418 12.7314H21.8364C21.3817 12.9069 20.9806 12.9946 20.6333 12.9946H20.4185C20.0067 12.9946 19.5788 12.8693 19.1348 12.6187C18.3434 12.0887 17.9478 11.2616 17.9478 10.1372C17.9478 9.17757 18.1805 8.39697 18.646 7.79541C19.1616 7.17236 19.8688 6.86084 20.7676 6.86084ZM19.6343 10.1533C19.6343 10.9232 19.9225 11.3081 20.499 11.3081H20.5688C20.8983 11.3081 21.2026 11.2043 21.4819 10.9966C21.5715 10.8784 21.6484 10.7137 21.7129 10.5024C21.7988 10.1515 21.8418 9.86328 21.8418 9.6377C21.8418 9.41211 21.8382 9.12028 21.8311 8.76221C21.4408 8.61898 21.0791 8.54736 20.7461 8.54736C20.2663 8.54736 19.9565 8.72819 19.8169 9.08984C19.6951 9.39421 19.6343 9.7487 19.6343 10.1533ZM27.6587 4.93799H27.7285C28.015 4.93799 28.2638 5.07764 28.4751 5.35693C28.5825 5.52881 28.6362 5.69352 28.6362 5.85107V5.9585C28.6362 6.15544 28.5575 6.35238 28.3999 6.54932C28.1779 6.78206 27.9326 6.89844 27.6641 6.89844H27.5942C27.3901 6.89844 27.1914 6.81787 26.998 6.65674C26.8011 6.45622 26.7026 6.24316 26.7026 6.01758V5.91553C26.7026 5.6971 26.7922 5.48047 26.9712 5.26562C27.1825 5.0472 27.4116 4.93799 27.6587 4.93799ZM27.75 7.11328H27.8091C28.1099 7.11328 28.3551 7.27083 28.5449 7.58594C28.5986 7.67904 28.6255 7.84375 28.6255 8.08008C28.6864 10.4147 28.7186 11.7897 28.7222 12.2051C28.7222 12.4342 28.6022 12.6491 28.3623 12.8496C28.2048 12.9499 28.0526 13 27.9058 13H27.8628C27.5871 13 27.3543 12.8657 27.1646 12.5972C27.075 12.4862 27.0303 12.2695 27.0303 11.9473C26.9694 9.39421 26.939 8.04427 26.939 7.89746C26.939 7.67904 27.05 7.47135 27.272 7.27441C27.4367 7.16699 27.596 7.11328 27.75 7.11328ZM32.3101 7.04883H32.5464C32.8615 7.04883 33.2035 7.16162 33.5723 7.38721C33.6904 7.45524 33.8462 7.5931 34.0396 7.80078C34.258 8.04069 34.4495 8.36117 34.6143 8.76221C34.9652 9.6359 35.1406 10.7298 35.1406 12.0439C35.1406 12.4486 34.9938 12.7297 34.7002 12.8872C34.582 12.9624 34.4531 13 34.3135 13H34.2651C33.9536 13 33.7048 12.8335 33.5186 12.5005C33.472 12.3752 33.4487 12.2731 33.4487 12.1943C33.4487 12.1227 33.4505 12.0583 33.4541 12.001C33.4541 11.0843 33.3377 10.2625 33.105 9.53564C32.9116 9.00212 32.6825 8.73535 32.4175 8.73535H32.4121C32.2617 8.73535 32.1418 8.82308 32.0522 8.99854C31.9699 9.10596 31.8804 9.31364 31.7837 9.62158C31.5975 10.2912 31.5044 11.0718 31.5044 11.9634V12.146C31.5044 12.4575 31.3397 12.7064 31.0103 12.8926C30.8885 12.9355 30.7829 12.957 30.6934 12.957H30.6396C30.3389 12.957 30.0936 12.7995 29.9038 12.4844C29.8429 12.3841 29.8125 12.1693 29.8125 11.8398C29.7373 9.42643 29.6997 8.10156 29.6997 7.86523C29.6997 7.61458 29.8304 7.39258 30.0918 7.19922C30.2314 7.1097 30.3747 7.06494 30.5215 7.06494H30.5645C30.8115 7.06494 31.0335 7.18132 31.2305 7.41406H31.2466C31.5903 7.17057 31.9448 7.04883 32.3101 7.04883ZM39.1582 7.41943H39.2065C39.382 7.41943 39.6183 7.51611 39.9155 7.70947C41.7166 8.71924 42.6745 9.26351 42.7891 9.34229C42.9967 9.53206 43.1006 9.74154 43.1006 9.9707V10.0244C43.1006 10.3538 42.9036 10.6296 42.5098 10.8516C40.5941 12.1764 39.5933 12.8604 39.5073 12.9033C39.3856 12.9678 39.2656 13 39.1475 13H39.083C38.7715 13 38.5244 12.8335 38.3418 12.5005C38.2952 12.3823 38.272 12.2785 38.272 12.189V12.1406C38.272 11.8219 38.4653 11.548 38.8521 11.3188C40.0086 10.5239 40.6102 10.1086 40.6567 10.0728C40.6496 10.062 40.2145 9.81315 39.3516 9.32617C38.9183 9.09342 38.6659 8.93945 38.5942 8.86426C38.4259 8.68164 38.3418 8.48649 38.3418 8.27881V8.24658C38.3418 7.95296 38.4904 7.70947 38.7876 7.51611C38.9201 7.45166 39.0436 7.41943 39.1582 7.41943Z" fill="white"/>
</svg>
