<svg width="57" height="18" viewBox="0 0 57 18" fill="none" xmlns="http://www.w3.org/2000/svg">
<rect width="57" height="18" rx="9" fill="#FFA217"/>
<path d="M14.6265 5.17969H14.6748C14.9648 5.17969 15.2065 5.32829 15.3999 5.62549C15.4608 5.76156 15.4912 5.88509 15.4912 5.99609V6.0498C15.4912 6.12142 15.2996 7.13477 14.9165 9.08984C14.519 11.1846 14.306 12.2767 14.2773 12.3662C14.1878 12.5846 14.05 12.744 13.8638 12.8442C13.7384 12.9087 13.6167 12.9409 13.4985 12.9409H13.4609C13.1816 12.9409 12.9435 12.8013 12.7466 12.522C12.632 12.2785 12.265 11.4746 11.6455 10.1104H11.624C10.8864 11.6823 10.4836 12.5238 10.4155 12.6348C10.2222 12.8783 9.99837 13 9.74414 13H9.70117C9.41113 13 9.17122 12.8514 8.98145 12.5542C8.91699 12.4754 8.86149 12.1961 8.81494 11.7163C8.37809 8.20719 8.14893 6.33805 8.12744 6.10889V6.02832C8.12744 5.72754 8.28678 5.48226 8.60547 5.29248C8.72721 5.24235 8.83643 5.21729 8.93311 5.21729H8.99219C9.25 5.21729 9.47201 5.33903 9.6582 5.58252C9.76562 5.74723 9.81934 5.91911 9.81934 6.09814C9.83366 6.18408 9.96077 7.19922 10.2007 9.14355H10.2114C10.2329 9.10417 10.4692 8.61182 10.9204 7.6665C11.1138 7.39079 11.3483 7.25293 11.624 7.25293H11.6777C11.9463 7.25293 12.1737 7.38005 12.3599 7.63428C12.4136 7.72021 12.641 8.21257 13.042 9.11133C13.1064 9.25098 13.1423 9.3208 13.1494 9.3208C13.5791 7.10433 13.8118 5.91374 13.8477 5.74902C13.9372 5.5306 14.0768 5.37126 14.2666 5.271C14.3883 5.21012 14.5083 5.17969 14.6265 5.17969ZM17.9941 5.21191H17.9995C18.5116 5.21191 18.9126 5.60758 19.2026 6.39893C19.6144 7.44808 20.096 9.17578 20.6475 11.582C20.7227 11.8721 20.7603 12.0654 20.7603 12.1621C20.7603 12.4736 20.6009 12.7243 20.2822 12.9141C20.1497 12.9714 20.0262 13 19.9116 13C19.618 13 19.3745 12.855 19.1812 12.5649C19.1382 12.5112 19.0558 12.1979 18.9341 11.625C18.866 11.3385 18.8285 11.1953 18.8213 11.1953H18.8105C18.6852 11.1953 18.0729 11.224 16.9736 11.2812C16.9593 11.2956 16.8626 11.6393 16.6836 12.3125C16.6156 12.513 16.4831 12.6706 16.2861 12.7852C16.1501 12.8532 16.0158 12.8872 15.8833 12.8872C15.6004 12.8872 15.3659 12.7565 15.1797 12.4951C15.0902 12.3483 15.0454 12.1961 15.0454 12.0386C15.0454 11.8381 15.4017 10.5544 16.1143 8.1875C16.5225 6.90202 16.8752 6.05518 17.1724 5.64697C17.4123 5.35693 17.6862 5.21191 17.9941 5.21191ZM17.457 9.54639C17.4606 9.55713 17.4624 9.56429 17.4624 9.56787C17.9744 9.53564 18.286 9.51953 18.397 9.51953C18.4006 9.51237 18.4023 9.507 18.4023 9.50342C18.2412 8.89827 18.098 8.39339 17.9727 7.98877H17.9673C17.953 7.98877 17.8205 8.38623 17.5698 9.18115C17.509 9.39958 17.4714 9.52132 17.457 9.54639ZM23.3223 5.19043H23.4458C24.7062 5.19043 25.6229 5.56462 26.1958 6.31299C26.4823 6.73551 26.6255 7.20996 26.6255 7.73633C26.6255 8.63151 26.2012 9.35124 25.3525 9.89551C25.2021 9.98861 25.0213 10.0835 24.8101 10.1802C24.8101 10.1945 24.9766 10.3145 25.3096 10.54C25.8968 10.9518 26.2191 11.1828 26.2764 11.2329C26.4626 11.4155 26.5557 11.6232 26.5557 11.856C26.5557 12.1424 26.425 12.3787 26.1636 12.5649C26.0168 12.6545 25.8646 12.6992 25.707 12.6992C25.4993 12.6992 25.2684 12.5972 25.0142 12.3931L22.8818 10.8892H22.8657C22.8729 11.2651 22.8765 11.5677 22.8765 11.7969V12.0386C22.8765 12.5005 22.6813 12.8066 22.291 12.957C22.1764 12.9857 22.0869 13 22.0225 13C21.736 13 21.5015 12.8657 21.3188 12.5972C21.2544 12.5148 21.2096 12.3841 21.1846 12.2051C21.1846 12.1514 21.1864 12.1012 21.1899 12.0547C21.1756 8.84993 21.1685 6.88411 21.1685 6.15723C21.1685 5.87793 21.3081 5.6416 21.5874 5.44824C21.6698 5.39095 21.8613 5.33724 22.1621 5.28711C22.6025 5.22266 22.9893 5.19043 23.3223 5.19043ZM22.855 6.90381C22.8586 7.75602 22.8604 8.40951 22.8604 8.86426V8.92334H22.8657C23.1056 8.92334 23.4816 8.84456 23.9937 8.68701C24.2371 8.60107 24.452 8.48828 24.6382 8.34863C24.8423 8.18392 24.9443 7.97803 24.9443 7.73096C24.9443 7.39437 24.7957 7.16699 24.4985 7.04883C24.2121 6.93424 23.8433 6.87695 23.3921 6.87695C23.1916 6.87695 23.0125 6.8859 22.855 6.90381ZM32.147 5.17969C32.4299 5.17969 32.6644 5.31396 32.8506 5.58252C32.9437 5.6792 32.9902 5.9585 32.9902 6.42041C33.0225 7.56982 33.0386 8.6154 33.0386 9.55713V9.68066C33.0386 11.2741 32.9705 12.1729 32.8345 12.377C32.8094 12.4701 32.7181 12.59 32.5605 12.7368C32.3923 12.8657 32.2114 12.9302 32.0181 12.9302C31.6421 12.9302 31.3001 12.6742 30.9922 12.1621C30.5231 11.4281 29.995 10.5275 29.4077 9.46045C29.4006 9.46045 29.2806 9.25456 29.0479 8.84277H29.0371C29.0371 9.15072 29.0837 10.2607 29.1768 12.1729C29.1768 12.445 29.0479 12.6759 28.79 12.8657C28.6396 12.9552 28.4875 13 28.3335 13C28.0256 13 27.7785 12.8514 27.5923 12.5542C27.5135 12.4217 27.4741 12.1585 27.4741 11.7646C27.3739 9.95638 27.3237 8.49007 27.3237 7.36572C27.3237 6.40609 27.3936 5.84928 27.5332 5.69531C27.5941 5.56641 27.7015 5.45361 27.8555 5.35693C27.9951 5.27816 28.1455 5.23877 28.3066 5.23877C28.679 5.23877 29.0103 5.48405 29.3003 5.97461C29.5044 6.27539 29.8929 6.92529 30.4658 7.92432C30.9242 8.7443 31.2178 9.25814 31.3467 9.46582H31.3521V9.46045C31.3521 8.55452 31.3324 7.39795 31.293 5.99072C31.293 5.82243 31.3646 5.64697 31.5078 5.46436C31.6904 5.27458 31.9035 5.17969 32.147 5.17969ZM34.6499 5.27637C34.9578 5.27637 35.2085 5.43571 35.4019 5.75439C35.4591 5.89046 35.4878 6.02295 35.4878 6.15186V12.1353C35.4878 12.4826 35.3213 12.744 34.9883 12.9194C34.8737 12.9731 34.7555 13 34.6338 13C34.3402 13 34.1003 12.8586 33.9141 12.5757C33.8389 12.4432 33.8013 12.2982 33.8013 12.1406V6.13574C33.8013 5.77767 33.9785 5.5127 34.333 5.34082C34.4476 5.29785 34.5532 5.27637 34.6499 5.27637ZM41.0737 5.17969C41.3566 5.17969 41.5911 5.31396 41.7773 5.58252C41.8704 5.6792 41.917 5.9585 41.917 6.42041C41.9492 7.56982 41.9653 8.6154 41.9653 9.55713V9.68066C41.9653 11.2741 41.8973 12.1729 41.7612 12.377C41.7362 12.4701 41.6449 12.59 41.4873 12.7368C41.319 12.8657 41.1382 12.9302 40.9448 12.9302C40.5688 12.9302 40.2269 12.6742 39.9189 12.1621C39.4499 11.4281 38.9217 10.5275 38.3345 9.46045C38.3273 9.46045 38.2074 9.25456 37.9746 8.84277H37.9639C37.9639 9.15072 38.0104 10.2607 38.1035 12.1729C38.1035 12.445 37.9746 12.6759 37.7168 12.8657C37.5664 12.9552 37.4142 13 37.2603 13C36.9523 13 36.7052 12.8514 36.519 12.5542C36.4403 12.4217 36.4009 12.1585 36.4009 11.7646C36.3006 9.95638 36.2505 8.49007 36.2505 7.36572C36.2505 6.40609 36.3203 5.84928 36.46 5.69531C36.5208 5.56641 36.6283 5.45361 36.7822 5.35693C36.9219 5.27816 37.0723 5.23877 37.2334 5.23877C37.6058 5.23877 37.937 5.48405 38.2271 5.97461C38.4312 6.27539 38.8197 6.92529 39.3926 7.92432C39.8509 8.7443 40.1445 9.25814 40.2734 9.46582H40.2788V9.46045C40.2788 8.55452 40.2591 7.39795 40.2197 5.99072C40.2197 5.82243 40.2913 5.64697 40.4346 5.46436C40.6172 5.27458 40.8302 5.17969 41.0737 5.17969ZM46.1387 5.19043H46.2461C46.6507 5.19043 47.0428 5.26204 47.4224 5.40527C47.7375 5.59863 47.895 5.85465 47.895 6.17334C47.895 6.4777 47.7393 6.72477 47.4277 6.91455C47.2917 6.97542 47.1628 7.00586 47.041 7.00586C46.9694 7.00586 46.8065 6.97184 46.5522 6.90381C46.4233 6.8859 46.2998 6.87695 46.1816 6.87695C45.7197 6.87695 45.3062 7.02734 44.9409 7.32812C44.7225 7.58236 44.5739 7.95117 44.4951 8.43457C44.4557 8.68522 44.436 8.93587 44.436 9.18652V9.21338C44.436 10.0011 44.5918 10.6134 44.9033 11.0503C45.0179 11.1756 45.1146 11.2383 45.1934 11.2383C45.3581 11.2884 45.5353 11.3135 45.7251 11.3135H45.7466C46.2909 11.3135 46.6239 11.0199 46.7456 10.4326C46.7599 10.3538 46.7707 10.2357 46.7778 10.0781C46.7743 10.0531 46.7725 10.0173 46.7725 9.9707C46.7546 9.96354 46.7367 9.95996 46.7188 9.95996H46.6597C46.5272 9.95996 46.332 9.99219 46.0742 10.0566C46.0384 10.0638 46.0026 10.0674 45.9668 10.0674C45.6839 10.0674 45.4494 9.93669 45.2632 9.67529C45.1737 9.52848 45.1289 9.3763 45.1289 9.21875C45.1289 8.93229 45.2668 8.69238 45.5425 8.49902C45.6177 8.44889 45.7788 8.39518 46.0259 8.33789C46.2515 8.29492 46.4323 8.27344 46.5684 8.27344H46.7402C47.1663 8.27344 47.5531 8.41488 47.9004 8.69775C48.2764 9.04508 48.4644 9.50342 48.4644 10.0728C48.4644 10.9142 48.2048 11.6214 47.6855 12.1943C47.4062 12.4665 47.1825 12.6348 47.0142 12.6992C46.6167 12.8997 46.2157 13 45.811 13H45.6445C45.2614 13 44.8496 12.9176 44.4092 12.7529C43.8327 12.488 43.3923 11.9705 43.0879 11.2007C42.8623 10.5776 42.7495 9.94385 42.7495 9.29932V9.11133C42.7495 8.31641 42.9106 7.56982 43.2329 6.87158C43.5301 6.25212 44.0404 5.78841 44.7637 5.48047C45.2327 5.28711 45.6911 5.19043 46.1387 5.19043Z" fill="white"/>
</svg>
