<svg width="52" height="18" viewBox="0 0 52 18" fill="none" xmlns="http://www.w3.org/2000/svg">
<rect width="52" height="18" rx="9" fill="#FF1717"/>
<path d="M9.56982 5.23877C10.6226 5.23877 11.498 5.54492 12.1963 6.15723C12.9518 6.85905 13.3296 7.83659 13.3296 9.08984C13.3296 10.5866 12.728 11.6912 11.5249 12.4038C10.7837 12.8013 9.97087 13 9.08643 13H9.04346C8.67822 13 8.40788 12.8156 8.23242 12.4468C8.19661 12.3215 8.17871 12.2355 8.17871 12.189C8.23242 8.12484 8.26465 6.06055 8.27539 5.99609C8.31478 5.79199 8.39176 5.63623 8.50635 5.52881C8.6639 5.33545 9.00228 5.23877 9.52148 5.23877H9.56982ZM9.94043 6.95215V6.95752L9.87598 11.2275C9.99056 11.2275 10.2376 11.1452 10.6172 10.9805C11.3011 10.6367 11.6431 10.0065 11.6431 9.08984C11.6431 8.12663 11.3405 7.48926 10.7354 7.17773C10.4095 7.02734 10.1445 6.95215 9.94043 6.95215ZM16.4019 5.21191H16.4072C16.9193 5.21191 17.3203 5.60758 17.6104 6.39893C18.0221 7.44808 18.5037 9.17578 19.0552 11.582C19.1304 11.8721 19.168 12.0654 19.168 12.1621C19.168 12.4736 19.0086 12.7243 18.6899 12.9141C18.5575 12.9714 18.4339 13 18.3193 13C18.0257 13 17.7822 12.855 17.5889 12.5649C17.5459 12.5112 17.4635 12.1979 17.3418 11.625C17.2738 11.3385 17.2362 11.1953 17.229 11.1953H17.2183C17.0929 11.1953 16.4806 11.224 15.3813 11.2812C15.367 11.2956 15.2703 11.6393 15.0913 12.3125C15.0233 12.513 14.8908 12.6706 14.6938 12.7852C14.5578 12.8532 14.4235 12.8872 14.291 12.8872C14.0081 12.8872 13.7736 12.7565 13.5874 12.4951C13.4979 12.3483 13.4531 12.1961 13.4531 12.0386C13.4531 11.8381 13.8094 10.5544 14.522 8.1875C14.9302 6.90202 15.2829 6.05518 15.5801 5.64697C15.82 5.35693 16.0939 5.21191 16.4019 5.21191ZM15.8647 9.54639C15.8683 9.55713 15.8701 9.56429 15.8701 9.56787C16.3822 9.53564 16.6937 9.51953 16.8047 9.51953C16.8083 9.51237 16.8101 9.507 16.8101 9.50342C16.6489 8.89827 16.5057 8.39339 16.3804 7.98877H16.375C16.3607 7.98877 16.2282 8.38623 15.9775 9.18115C15.9167 9.39958 15.8791 9.52132 15.8647 9.54639ZM24.3994 5.17969C24.6823 5.17969 24.9168 5.31396 25.103 5.58252C25.1961 5.6792 25.2427 5.9585 25.2427 6.42041C25.2749 7.56982 25.291 8.6154 25.291 9.55713V9.68066C25.291 11.2741 25.223 12.1729 25.0869 12.377C25.0618 12.4701 24.9705 12.59 24.813 12.7368C24.6447 12.8657 24.4639 12.9302 24.2705 12.9302C23.8945 12.9302 23.5526 12.6742 23.2446 12.1621C22.7756 11.4281 22.2474 10.5275 21.6602 9.46045C21.653 9.46045 21.533 9.25456 21.3003 8.84277H21.2896C21.2896 9.15072 21.3361 10.2607 21.4292 12.1729C21.4292 12.445 21.3003 12.6759 21.0425 12.8657C20.8921 12.9552 20.7399 13 20.5859 13C20.278 13 20.0309 12.8514 19.8447 12.5542C19.766 12.4217 19.7266 12.1585 19.7266 11.7646C19.6263 9.95638 19.5762 8.49007 19.5762 7.36572C19.5762 6.40609 19.646 5.84928 19.7856 5.69531C19.8465 5.56641 19.9539 5.45361 20.1079 5.35693C20.2476 5.27816 20.3979 5.23877 20.5591 5.23877C20.9315 5.23877 21.2627 5.48405 21.5527 5.97461C21.7568 6.27539 22.1453 6.92529 22.7183 7.92432C23.1766 8.7443 23.4702 9.25814 23.5991 9.46582H23.6045V9.46045C23.6045 8.55452 23.5848 7.39795 23.5454 5.99072C23.5454 5.82243 23.617 5.64697 23.7603 5.46436C23.9429 5.27458 24.1559 5.17969 24.3994 5.17969ZM29.4644 5.19043H29.5718C29.9764 5.19043 30.3685 5.26204 30.748 5.40527C31.0632 5.59863 31.2207 5.85465 31.2207 6.17334C31.2207 6.4777 31.0649 6.72477 30.7534 6.91455C30.6174 6.97542 30.4884 7.00586 30.3667 7.00586C30.2951 7.00586 30.1322 6.97184 29.8779 6.90381C29.749 6.8859 29.6255 6.87695 29.5073 6.87695C29.0454 6.87695 28.6318 7.02734 28.2666 7.32812C28.0482 7.58236 27.8996 7.95117 27.8208 8.43457C27.7814 8.68522 27.7617 8.93587 27.7617 9.18652V9.21338C27.7617 10.0011 27.9175 10.6134 28.229 11.0503C28.3436 11.1756 28.4403 11.2383 28.519 11.2383C28.6838 11.2884 28.861 11.3135 29.0508 11.3135H29.0723C29.6165 11.3135 29.9495 11.0199 30.0713 10.4326C30.0856 10.3538 30.0964 10.2357 30.1035 10.0781C30.0999 10.0531 30.0981 10.0173 30.0981 9.9707C30.0802 9.96354 30.0623 9.95996 30.0444 9.95996H29.9854C29.8529 9.95996 29.6577 9.99219 29.3999 10.0566C29.3641 10.0638 29.3283 10.0674 29.2925 10.0674C29.0096 10.0674 28.7751 9.93669 28.5889 9.67529C28.4993 9.52848 28.4546 9.3763 28.4546 9.21875C28.4546 8.93229 28.5924 8.69238 28.8682 8.49902C28.9434 8.44889 29.1045 8.39518 29.3516 8.33789C29.5771 8.29492 29.758 8.27344 29.894 8.27344H30.0659C30.492 8.27344 30.8787 8.41488 31.2261 8.69775C31.6021 9.04508 31.79 9.50342 31.79 10.0728C31.79 10.9142 31.5304 11.6214 31.0112 12.1943C30.7319 12.4665 30.5081 12.6348 30.3398 12.6992C29.9424 12.8997 29.5413 13 29.1367 13H28.9702C28.5871 13 28.1753 12.9176 27.7349 12.7529C27.1584 12.488 26.7179 11.9705 26.4136 11.2007C26.188 10.5776 26.0752 9.94385 26.0752 9.29932V9.11133C26.0752 8.31641 26.2363 7.56982 26.5586 6.87158C26.8558 6.25212 27.366 5.78841 28.0894 5.48047C28.5584 5.28711 29.0168 5.19043 29.4644 5.19043ZM36.5273 5.18506C36.6956 5.18506 36.8711 5.25667 37.0537 5.3999C37.2399 5.58252 37.333 5.79199 37.333 6.02832C37.333 6.34701 37.1772 6.59766 36.8657 6.78027C36.7834 6.84831 36.4826 6.88232 35.9634 6.88232L34.1641 6.91455L34.1318 8.34863H34.1372C34.771 8.34147 35.2437 8.33789 35.5552 8.33789C35.8846 8.33789 36.1424 8.49723 36.3286 8.81592C36.3859 8.9484 36.4146 9.07194 36.4146 9.18652C36.4146 9.48014 36.2713 9.72184 35.9849 9.91162C35.8524 9.98682 35.7038 10.0244 35.5391 10.0244C35.2383 10.0244 34.7531 10.0262 34.0835 10.0298L34.0781 10.0566L34.0513 11.2275L34.0459 11.2759C35.625 11.2078 36.4629 11.1738 36.5596 11.1738C36.8532 11.1738 37.0931 11.3153 37.2793 11.5981C37.3545 11.7342 37.3921 11.8739 37.3921 12.0171C37.3921 12.3143 37.2471 12.5596 36.957 12.7529C36.8424 12.8317 36.5793 12.8711 36.1675 12.8711C36.1174 12.8747 35.1147 12.9176 33.1597 13C32.9591 13 32.7676 12.9141 32.585 12.7422C32.4202 12.5667 32.3379 12.3698 32.3379 12.1514C32.4453 8.03353 32.5044 5.97461 32.5151 5.97461C32.5581 5.77051 32.6333 5.61654 32.7407 5.5127C32.8911 5.37305 33.0218 5.29427 33.1328 5.27637C33.2367 5.24056 33.7344 5.22266 34.626 5.22266C34.6833 5.21908 35.3171 5.20654 36.5273 5.18506ZM40.1099 5.19043H40.2334C41.4938 5.19043 42.4105 5.56462 42.9834 6.31299C43.2699 6.73551 43.4131 7.20996 43.4131 7.73633C43.4131 8.63151 42.9888 9.35124 42.1401 9.89551C41.9897 9.98861 41.8089 10.0835 41.5977 10.1802C41.5977 10.1945 41.7642 10.3145 42.0972 10.54C42.6844 10.9518 43.0067 11.1828 43.064 11.2329C43.2502 11.4155 43.3433 11.6232 43.3433 11.856C43.3433 12.1424 43.2126 12.3787 42.9512 12.5649C42.8044 12.6545 42.6522 12.6992 42.4946 12.6992C42.2869 12.6992 42.056 12.5972 41.8018 12.3931L39.6694 10.8892H39.6533C39.6605 11.2651 39.6641 11.5677 39.6641 11.7969V12.0386C39.6641 12.5005 39.4689 12.8066 39.0786 12.957C38.964 12.9857 38.8745 13 38.8101 13C38.5236 13 38.2891 12.8657 38.1064 12.5972C38.042 12.5148 37.9972 12.3841 37.9722 12.2051C37.9722 12.1514 37.974 12.1012 37.9775 12.0547C37.9632 8.84993 37.9561 6.88411 37.9561 6.15723C37.9561 5.87793 38.0957 5.6416 38.375 5.44824C38.4574 5.39095 38.6489 5.33724 38.9497 5.28711C39.3901 5.22266 39.7769 5.19043 40.1099 5.19043ZM39.6426 6.90381C39.6462 7.75602 39.6479 8.40951 39.6479 8.86426V8.92334H39.6533C39.8932 8.92334 40.2692 8.84456 40.7812 8.68701C41.0247 8.60107 41.2396 8.48828 41.4258 8.34863C41.6299 8.18392 41.7319 7.97803 41.7319 7.73096C41.7319 7.39437 41.5833 7.16699 41.2861 7.04883C40.9997 6.93424 40.6309 6.87695 40.1797 6.87695C39.9792 6.87695 39.8001 6.8859 39.6426 6.90381Z" fill="white"/>
</svg>
